<svg width="69" height="69" viewBox="0 0 69 69" fill="none" xmlns="http://www.w3.org/2000/svg">
    <g clip-path="url(#clip0_108_176)">
        <rect y="44" width="50" height="50" rx="10" transform="rotate(-60 0 44)" fill="#1AB8DB" fill-opacity="0.43"/>
    </g>
    <g clip-path="url(#clip1_108_176)">
        <rect x="1" y="32" width="47" height="47" rx="10" transform="rotate(-40 1 32)" fill="#1AB8DB" fill-opacity="0.75"/>
    </g>
    <g clip-path="url(#clip2_108_176)">
        <rect x="5" y="21" width="45" height="45" rx="10" transform="rotate(-20 5 21)" fill="#1AB8DB" fill-opacity="0.85"/>
        <path d="M43.0196 29.6845C44.0905 31.9214 44.292 34.4764 43.585 36.8535C42.878 39.2306 41.3129 41.2602 39.1936 42.5482C37.0743 43.8362 34.552 44.2908 32.1164 43.8237C29.6808 43.3565 27.5056 42.001 26.0133 40.0203C24.5209 38.0395 23.8178 35.5749 24.0404 33.1049C24.263 30.6349 25.3956 28.3358 27.2181 26.6539C29.0406 24.9719 31.4231 24.0272 33.903 24.0032C36.3829 23.9791 38.7832 24.8774 40.638 26.5236L42.9898 24.1719C43.1 24.0618 43.2495 23.9999 43.4053 24C43.5612 24.0001 43.7106 24.062 43.8208 24.1722C43.931 24.2824 43.9929 24.4318 43.993 24.5877C43.993 24.7435 43.9311 24.893 43.821 25.0032L37.7411 31.0832L37.741 31.0833L37.7408 31.0834L34.4157 34.4086C34.3054 34.5187 34.1559 34.5805 34.0001 34.5805C33.8442 34.5804 33.6948 34.5185 33.5846 34.4083C33.4744 34.2981 33.4125 34.1487 33.4125 33.9928C33.4124 33.837 33.4743 33.6875 33.5844 33.5772L36.4639 30.6978C35.7137 30.137 34.7946 29.849 33.8585 29.8814C32.9225 29.9137 32.0255 30.2645 31.3158 30.8758C30.6061 31.487 30.1262 32.3221 29.9554 33.243C29.7846 34.1639 29.9332 35.1155 30.3765 35.9406C30.8199 36.7656 31.5315 37.4147 32.3937 37.7806C33.2559 38.1464 34.2171 38.2071 35.1185 37.9526C36.0199 37.6981 36.8075 37.1437 37.3511 36.381C37.8947 35.6183 38.1618 34.6929 38.1082 33.7578C38.1037 33.6807 38.1145 33.6034 38.1399 33.5304C38.1653 33.4575 38.2048 33.3902 38.2562 33.3326C38.3076 33.2749 38.3699 33.2279 38.4395 33.1943C38.509 33.1608 38.5845 33.1412 38.6617 33.1368C38.7388 33.1324 38.816 33.1433 38.889 33.1688C38.9619 33.1943 39.0291 33.2339 39.0867 33.2854C39.1443 33.3369 39.1912 33.3992 39.2247 33.4688C39.2582 33.5384 39.2776 33.614 39.2819 33.6911C39.3513 34.9009 39.0033 36.0979 38.2961 37.0819C37.5889 38.0659 36.5653 38.7774 35.3965 39.0973C34.2277 39.4172 32.9844 39.3262 31.8747 38.8395C30.7649 38.3528 29.8558 37.4999 29.2994 36.4234C28.743 35.3469 28.573 34.112 28.8177 32.9252C29.0625 31.7384 29.7073 30.6716 30.6443 29.9031C31.5812 29.1346 32.7536 28.711 33.9654 28.7032C35.1771 28.6953 36.3549 29.1037 37.3017 29.8599L39.8041 27.3576C38.1608 25.9247 36.0444 25.1524 33.8644 25.1904C31.6845 25.2283 29.5962 26.0736 28.0038 27.5628C26.4113 29.052 25.428 31.079 25.2442 33.2515C25.0605 35.424 25.6893 37.5874 27.0089 39.3229C28.3286 41.0584 30.2453 42.2426 32.3878 42.6461C34.5304 43.0497 36.7465 42.6439 38.6071 41.5074C40.4677 40.3709 41.8405 38.5845 42.4597 36.494C43.0788 34.4035 42.9003 32.1577 41.9588 30.1912C41.9255 30.1216 41.9063 30.046 41.9022 29.969C41.8981 29.8919 41.9092 29.8147 41.935 29.7419C41.9607 29.6692 42.0005 29.6022 42.0521 29.5448C42.1038 29.4874 42.1662 29.4407 42.2358 29.4074C42.3055 29.3742 42.381 29.355 42.4581 29.3509C42.5352 29.3468 42.6123 29.3579 42.6851 29.3837C42.7579 29.4094 42.8249 29.4492 42.8823 29.5008C42.9397 29.5524 42.9863 29.6149 43.0196 29.6845V29.6845Z" fill="black" fill-opacity="0.6"/>
    </g>
    <defs>
        <clipPath id="clip0_108_176">
            <rect width="50" height="50" fill="white" transform="translate(0 44) rotate(-60)"/>
        </clipPath>
        <clipPath id="clip1_108_176">
            <rect width="47" height="47" fill="white" transform="translate(1 32) rotate(-40)"/>
        </clipPath>
        <clipPath id="clip2_108_176">
            <rect width="45" height="45" fill="white" transform="translate(5 21) rotate(-20)"/>
        </clipPath>
    </defs>
</svg>
